<svg width="290" height="82" viewBox="0 0 290 82" fill="none" xmlns="http://www.w3.org/2000/svg">
<path opacity="0.2" d="M37.4162 0H37.4161C16.7518 0 0 16.7518 0 37.4161V37.4162C0 58.0805 16.7518 74.8323 37.4161 74.8323H37.4162C58.0805 74.8323 74.8323 58.0805 74.8323 37.4162V37.4161C74.8323 16.7518 58.0805 0 37.4162 0Z" fill="#FA7275"/>
<path d="M82.6265 56.1238C82.6265 42.3476 71.4586 31.1797 57.6824 31.1797C43.9061 31.1797 32.7383 42.3476 32.7383 56.1238C32.7383 69.9 43.9061 81.0679 57.6824 81.0679C71.4586 81.0679 82.6265 69.9 82.6265 56.1238Z" fill="#FA7275"/>
<path d="M100.816 56V32.2H109.724C111.991 32.2 114.008 32.676 115.776 33.628C117.544 34.5687 118.933 35.9287 119.941 37.708C120.95 39.476 121.454 41.6067 121.454 44.1C121.454 46.5933 120.95 48.7297 119.941 50.509C118.933 52.277 117.544 53.637 115.776 54.589C114.008 55.5297 111.991 56 109.724 56H100.816ZM105.168 52.124H109.724C111.266 52.124 112.552 51.801 113.583 51.155C114.615 50.509 115.391 49.5853 115.912 48.384C116.434 47.1827 116.694 45.7547 116.694 44.1C116.694 42.4453 116.434 41.0173 115.912 39.816C115.391 38.6147 114.615 37.691 113.583 37.045C112.552 36.399 111.266 36.076 109.724 36.076H105.168V52.124ZM125.735 56V39H129.679L129.781 40.802C130.212 40.326 130.818 39.85 131.6 39.374C132.382 38.898 133.238 38.66 134.167 38.66C134.439 38.66 134.689 38.6827 134.915 38.728L134.609 42.876C134.36 42.808 134.111 42.7627 133.861 42.74C133.623 42.7173 133.385 42.706 133.147 42.706C132.433 42.706 131.782 42.8703 131.192 43.199C130.603 43.5277 130.189 43.93 129.951 44.406V56H125.735ZM145.737 56.34C143.89 56.34 142.315 55.9377 141.011 55.133C139.708 54.3283 138.711 53.2573 138.019 51.92C137.339 50.5827 136.999 49.1207 136.999 47.534C136.999 45.936 137.339 44.4627 138.019 43.114C138.711 41.7653 139.708 40.6887 141.011 39.884C142.315 39.068 143.89 38.66 145.737 38.66C147.585 38.66 149.16 39.068 150.463 39.884C151.767 40.6887 152.758 41.7653 153.438 43.114C154.13 44.4627 154.475 45.936 154.475 47.534C154.475 49.1207 154.13 50.5827 153.438 51.92C152.758 53.2573 151.767 54.3283 150.463 55.133C149.16 55.9377 147.585 56.34 145.737 56.34ZM145.737 52.872C147.154 52.872 148.242 52.379 149.001 51.393C149.772 50.3957 150.157 49.1093 150.157 47.534C150.157 45.936 149.772 44.6383 149.001 43.641C148.242 42.6323 147.154 42.128 145.737 42.128C144.332 42.128 143.244 42.6323 142.473 43.641C141.703 44.6383 141.317 45.936 141.317 47.534C141.317 49.1093 141.703 50.3957 142.473 51.393C143.244 52.379 144.332 52.872 145.737 52.872ZM158.77 64.228V39H162.17L162.986 41.822L161.728 41.38C162.51 40.5753 163.36 39.935 164.278 39.459C165.196 38.9717 166.318 38.728 167.644 38.728C169.31 38.728 170.71 39.1303 171.843 39.935C172.976 40.7397 173.832 41.8107 174.41 43.148C174.999 44.4853 175.294 45.9473 175.294 47.534C175.294 49.1207 174.999 50.5827 174.41 51.92C173.832 53.2573 172.976 54.3283 171.843 55.133C170.71 55.9377 169.31 56.34 167.644 56.34C166.318 56.34 165.241 56.1587 164.414 55.796C163.587 55.4333 162.748 54.8553 161.898 54.062L162.986 53.212V64.228H158.77ZM166.998 52.872C168.256 52.872 169.231 52.379 169.922 51.393C170.625 50.3957 170.976 49.1093 170.976 47.534C170.976 45.9473 170.625 44.661 169.922 43.675C169.231 42.689 168.256 42.196 166.998 42.196C166.023 42.196 165.224 42.4227 164.601 42.876C163.978 43.3293 163.519 43.9583 163.224 44.763C162.929 45.5563 162.782 46.48 162.782 47.534C162.782 48.588 162.929 49.5173 163.224 50.322C163.519 51.1153 163.978 51.7387 164.601 52.192C165.224 52.6453 166.023 52.872 166.998 52.872ZM186.604 56.476C185.64 56.476 184.649 56.3797 183.629 56.187C182.609 56.0057 181.662 55.7847 180.79 55.524C179.917 55.252 179.226 54.9913 178.716 54.742L179.226 50.118C180.019 50.5033 180.846 50.8603 181.708 51.189C182.569 51.5177 183.453 51.784 184.36 51.988C185.266 52.192 186.184 52.294 187.114 52.294C188.27 52.294 189.199 52.0673 189.902 51.614C190.604 51.1607 190.956 50.4693 190.956 49.54C190.956 48.826 190.757 48.2537 190.361 47.823C189.964 47.381 189.358 46.99 188.542 46.65C187.726 46.2987 186.683 45.902 185.414 45.46C184.144 45.018 183.005 44.5193 181.997 43.964C180.988 43.3973 180.189 42.6833 179.6 41.822C179.01 40.9607 178.716 39.8613 178.716 38.524C178.716 37.2093 179.039 36.042 179.685 35.022C180.331 33.9907 181.294 33.186 182.575 32.608C183.867 32.0187 185.47 31.724 187.386 31.724C188.836 31.724 190.219 31.8883 191.534 32.217C192.848 32.5343 193.97 32.88 194.9 33.254L194.458 37.708C193.12 37.1073 191.862 36.654 190.684 36.348C189.516 36.0307 188.326 35.872 187.114 35.872C185.844 35.872 184.864 36.0817 184.173 36.501C183.481 36.9203 183.136 37.5493 183.136 38.388C183.136 39.0567 183.328 39.595 183.714 40.003C184.099 40.411 184.649 40.7623 185.363 41.057C186.077 41.3403 186.932 41.6407 187.93 41.958C189.652 42.502 191.097 43.1027 192.265 43.76C193.443 44.406 194.327 45.1937 194.917 46.123C195.517 47.041 195.818 48.18 195.818 49.54C195.818 50.22 195.71 50.9623 195.495 51.767C195.279 52.5603 194.854 53.314 194.22 54.028C193.585 54.742 192.656 55.3313 191.432 55.796C190.219 56.2493 188.61 56.476 186.604 56.476ZM205.282 56.34C204.217 56.34 203.35 56.1247 202.681 55.694C202.012 55.252 201.519 54.691 201.202 54.011C200.885 53.331 200.726 52.6227 200.726 51.886V42.468H198.312L198.686 39H200.726V35.26L204.942 34.818V39H208.682V42.468H204.942V50.152C204.942 51.0133 204.993 51.6367 205.095 52.022C205.197 52.396 205.429 52.634 205.792 52.736C206.155 52.8267 206.733 52.872 207.526 52.872H208.682L208.308 56.34H205.282ZM212.787 56V39H216.731L216.833 40.802C217.264 40.326 217.87 39.85 218.652 39.374C219.434 38.898 220.29 38.66 221.219 38.66C221.491 38.66 221.741 38.6827 221.967 38.728L221.661 42.876C221.412 42.808 221.163 42.7627 220.913 42.74C220.675 42.7173 220.437 42.706 220.199 42.706C219.485 42.706 218.834 42.8703 218.244 43.199C217.655 43.5277 217.241 43.93 217.003 44.406V56H212.787ZM233.265 56.34C231.214 56.34 229.503 55.932 228.131 55.116C226.771 54.2887 225.751 53.2007 225.071 51.852C224.391 50.492 224.051 49.0073 224.051 47.398C224.051 45.8453 224.369 44.4117 225.003 43.097C225.649 41.7823 226.59 40.7283 227.825 39.935C229.061 39.1303 230.568 38.728 232.347 38.728C233.979 38.728 235.339 39.0623 236.427 39.731C237.515 40.3997 238.331 41.295 238.875 42.417C239.419 43.5277 239.691 44.7573 239.691 46.106C239.691 46.48 239.669 46.8597 239.623 47.245C239.578 47.619 239.51 48.01 239.419 48.418H228.437C228.596 49.472 228.925 50.3277 229.423 50.985C229.933 51.631 230.551 52.107 231.276 52.413C232.013 52.719 232.801 52.872 233.639 52.872C234.625 52.872 235.543 52.7473 236.393 52.498C237.243 52.2373 238.025 51.8973 238.739 51.478L238.943 55.048C238.297 55.388 237.493 55.6883 236.529 55.949C235.566 56.2097 234.478 56.34 233.265 56.34ZM228.539 45.562H235.407C235.407 45.052 235.311 44.542 235.118 44.032C234.926 43.5107 234.603 43.0743 234.149 42.723C233.707 42.3717 233.107 42.196 232.347 42.196C231.259 42.196 230.404 42.5133 229.78 43.148C229.157 43.7827 228.743 44.5873 228.539 45.562ZM247.601 56.34C246.695 56.34 245.867 56.1417 245.119 55.745C244.371 55.337 243.776 54.7533 243.334 53.994C242.892 53.2347 242.671 52.3167 242.671 51.24C242.671 50.2767 242.892 49.455 243.334 48.775C243.788 48.0837 244.377 47.5113 245.102 47.058C245.839 46.5933 246.632 46.2307 247.482 45.97C248.344 45.698 249.188 45.4997 250.015 45.375C250.854 45.2503 251.591 45.1767 252.225 45.154C252.18 44.1793 251.931 43.471 251.477 43.029C251.024 42.587 250.253 42.366 249.165 42.366C248.406 42.366 247.664 42.4737 246.938 42.689C246.224 42.893 245.414 43.216 244.507 43.658L244.133 40.224C245.153 39.7253 246.173 39.3513 247.193 39.102C248.225 38.8527 249.267 38.728 250.321 38.728C251.591 38.728 252.684 38.9547 253.602 39.408C254.52 39.8613 255.229 40.5923 255.727 41.601C256.226 42.5983 256.475 43.9187 256.475 45.562V50.152C256.475 51.002 256.515 51.6197 256.594 52.005C256.674 52.379 256.821 52.617 257.036 52.719C257.252 52.821 257.563 52.872 257.971 52.872H258.515L258.141 56.34H256.611C255.977 56.34 255.41 56.255 254.911 56.085C254.424 55.9263 254.005 55.6997 253.653 55.405C253.302 55.1103 253.019 54.7647 252.803 54.368C252.248 54.9913 251.494 55.4787 250.542 55.83C249.602 56.17 248.621 56.34 247.601 56.34ZM249.369 53.11C249.743 53.11 250.208 53.0137 250.763 52.821C251.319 52.617 251.817 52.3053 252.259 51.886V48.01C251.466 48.044 250.673 48.1743 249.879 48.401C249.086 48.6277 248.423 48.962 247.89 49.404C247.358 49.846 247.091 50.4013 247.091 51.07C247.091 51.7613 247.273 52.277 247.635 52.617C247.998 52.9457 248.576 53.11 249.369 53.11ZM262.223 56V39H265.827L266.099 41.482L265.487 40.734C266.133 40.224 266.904 39.765 267.799 39.357C268.706 38.9377 269.76 38.728 270.961 38.728C271.868 38.728 272.667 38.864 273.358 39.136C274.061 39.3967 274.661 39.7763 275.16 40.275C275.659 40.7623 276.061 41.346 276.367 42.026L275.347 41.788C275.891 40.8133 276.684 40.0597 277.727 39.527C278.781 38.9943 279.971 38.728 281.297 38.728C282.861 38.728 284.136 39.051 285.122 39.697C286.108 40.343 286.833 41.2553 287.298 42.434C287.763 43.6013 287.995 44.9727 287.995 46.548V56H283.779V46.854C283.779 45.2673 283.53 44.0943 283.031 43.335C282.544 42.5757 281.728 42.196 280.583 42.196C280.016 42.196 279.518 42.298 279.087 42.502C278.668 42.6947 278.316 42.9837 278.033 43.369C277.761 43.743 277.557 44.202 277.421 44.746C277.285 45.2787 277.217 45.8793 277.217 46.548V56H273.001V46.854C273.001 45.8 272.888 44.9273 272.661 44.236C272.446 43.5447 272.094 43.0347 271.607 42.706C271.131 42.366 270.508 42.196 269.737 42.196C268.751 42.196 267.941 42.4283 267.306 42.893C266.683 43.3463 266.133 43.964 265.657 44.746L266.439 42.468V56H262.223Z" fill="#FA7275"/>
</svg>
