<svg width="313" height="82" viewBox="0 0 313 82" fill="none" xmlns="http://www.w3.org/2000/svg">
<path opacity="0.2" d="M37.4162 0H37.4161C16.7518 0 0 16.7518 0 37.4161V37.4162C0 58.0805 16.7518 74.8323 37.4161 74.8323H37.4162C58.0805 74.8323 74.8323 58.0805 74.8323 37.4162V37.4161C74.8323 16.7518 58.0805 0 37.4162 0Z" fill="white"/>
<path d="M82.6265 56.1238C82.6265 42.3476 71.4586 31.1797 57.6824 31.1797C43.9061 31.1797 32.7383 42.3476 32.7383 56.1238C32.7383 69.9 43.9061 81.0679 57.6824 81.0679C71.4586 81.0679 82.6265 69.9 82.6265 56.1238Z" fill="white"/>
<path d="M109.316 56V32.2H118.224C120.491 32.2 122.508 32.676 124.276 33.628C126.044 34.5687 127.433 35.9287 128.441 37.708C129.45 39.476 129.954 41.6067 129.954 44.1C129.954 46.5933 129.45 48.7297 128.441 50.509C127.433 52.277 126.044 53.637 124.276 54.589C122.508 55.5297 120.491 56 118.224 56H109.316ZM113.668 52.124H118.224C119.766 52.124 121.052 51.801 122.083 51.155C123.115 50.509 123.891 49.5853 124.412 48.384C124.934 47.1827 125.194 45.7547 125.194 44.1C125.194 42.4453 124.934 41.0173 124.412 39.816C123.891 38.6147 123.115 37.691 122.083 37.045C121.052 36.399 119.766 36.076 118.224 36.076H113.668V52.124ZM134.235 56V39H138.179L138.281 40.802C138.712 40.326 139.318 39.85 140.1 39.374C140.882 38.898 141.738 38.66 142.667 38.66C142.939 38.66 143.189 38.6827 143.415 38.728L143.109 42.876C142.86 42.808 142.611 42.7627 142.361 42.74C142.123 42.7173 141.885 42.706 141.647 42.706C140.933 42.706 140.282 42.8703 139.692 43.199C139.103 43.5277 138.689 43.93 138.451 44.406V56H134.235ZM154.237 56.34C152.39 56.34 150.815 55.9377 149.511 55.133C148.208 54.3283 147.211 53.2573 146.519 51.92C145.839 50.5827 145.499 49.1207 145.499 47.534C145.499 45.936 145.839 44.4627 146.519 43.114C147.211 41.7653 148.208 40.6887 149.511 39.884C150.815 39.068 152.39 38.66 154.237 38.66C156.085 38.66 157.66 39.068 158.963 39.884C160.267 40.6887 161.258 41.7653 161.938 43.114C162.63 44.4627 162.975 45.936 162.975 47.534C162.975 49.1207 162.63 50.5827 161.938 51.92C161.258 53.2573 160.267 54.3283 158.963 55.133C157.66 55.9377 156.085 56.34 154.237 56.34ZM154.237 52.872C155.654 52.872 156.742 52.379 157.501 51.393C158.272 50.3957 158.657 49.1093 158.657 47.534C158.657 45.936 158.272 44.6383 157.501 43.641C156.742 42.6323 155.654 42.128 154.237 42.128C152.832 42.128 151.744 42.6323 150.973 43.641C150.203 44.6383 149.817 45.936 149.817 47.534C149.817 49.1093 150.203 50.3957 150.973 51.393C151.744 52.379 152.832 52.872 154.237 52.872ZM167.27 64.228V39H170.67L171.486 41.822L170.228 41.38C171.01 40.5753 171.86 39.935 172.778 39.459C173.696 38.9717 174.818 38.728 176.144 38.728C177.81 38.728 179.21 39.1303 180.343 39.935C181.476 40.7397 182.332 41.8107 182.91 43.148C183.499 44.4853 183.794 45.9473 183.794 47.534C183.794 49.1207 183.499 50.5827 182.91 51.92C182.332 53.2573 181.476 54.3283 180.343 55.133C179.21 55.9377 177.81 56.34 176.144 56.34C174.818 56.34 173.741 56.1587 172.914 55.796C172.087 55.4333 171.248 54.8553 170.398 54.062L171.486 53.212V64.228H167.27ZM175.498 52.872C176.756 52.872 177.731 52.379 178.422 51.393C179.125 50.3957 179.476 49.1093 179.476 47.534C179.476 45.9473 179.125 44.661 178.422 43.675C177.731 42.689 176.756 42.196 175.498 42.196C174.523 42.196 173.724 42.4227 173.101 42.876C172.478 43.3293 172.019 43.9583 171.724 44.763C171.429 45.5563 171.282 46.48 171.282 47.534C171.282 48.588 171.429 49.5173 171.724 50.322C172.019 51.1153 172.478 51.7387 173.101 52.192C173.724 52.6453 174.523 52.872 175.498 52.872ZM195.104 56.476C194.14 56.476 193.149 56.3797 192.129 56.187C191.109 56.0057 190.162 55.7847 189.29 55.524C188.417 55.252 187.726 54.9913 187.216 54.742L187.726 50.118C188.519 50.5033 189.346 50.8603 190.208 51.189C191.069 51.5177 191.953 51.784 192.86 51.988C193.766 52.192 194.684 52.294 195.614 52.294C196.77 52.294 197.699 52.0673 198.402 51.614C199.104 51.1607 199.456 50.4693 199.456 49.54C199.456 48.826 199.257 48.2537 198.861 47.823C198.464 47.381 197.858 46.99 197.042 46.65C196.226 46.2987 195.183 45.902 193.914 45.46C192.644 45.018 191.505 44.5193 190.497 43.964C189.488 43.3973 188.689 42.6833 188.1 41.822C187.51 40.9607 187.216 39.8613 187.216 38.524C187.216 37.2093 187.539 36.042 188.185 35.022C188.831 33.9907 189.794 33.186 191.075 32.608C192.367 32.0187 193.97 31.724 195.886 31.724C197.336 31.724 198.719 31.8883 200.034 32.217C201.348 32.5343 202.47 32.88 203.4 33.254L202.958 37.708C201.62 37.1073 200.362 36.654 199.184 36.348C198.016 36.0307 196.826 35.872 195.614 35.872C194.344 35.872 193.364 36.0817 192.673 36.501C191.981 36.9203 191.636 37.5493 191.636 38.388C191.636 39.0567 191.828 39.595 192.214 40.003C192.599 40.411 193.149 40.7623 193.863 41.057C194.577 41.3403 195.432 41.6407 196.43 41.958C198.152 42.502 199.597 43.1027 200.765 43.76C201.943 44.406 202.827 45.1937 203.417 46.123C204.017 47.041 204.318 48.18 204.318 49.54C204.318 50.22 204.21 50.9623 203.995 51.767C203.779 52.5603 203.354 53.314 202.72 54.028C202.085 54.742 201.156 55.3313 199.932 55.796C198.719 56.2493 197.11 56.476 195.104 56.476ZM213.782 56.34C212.717 56.34 211.85 56.1247 211.181 55.694C210.512 55.252 210.019 54.691 209.702 54.011C209.385 53.331 209.226 52.6227 209.226 51.886V42.468H206.812L207.186 39H209.226V35.26L213.442 34.818V39H217.182V42.468H213.442V50.152C213.442 51.0133 213.493 51.6367 213.595 52.022C213.697 52.396 213.929 52.634 214.292 52.736C214.655 52.8267 215.233 52.872 216.026 52.872H217.182L216.808 56.34H213.782ZM221.287 56V39H225.231L225.333 40.802C225.764 40.326 226.37 39.85 227.152 39.374C227.934 38.898 228.79 38.66 229.719 38.66C229.991 38.66 230.241 38.6827 230.467 38.728L230.161 42.876C229.912 42.808 229.663 42.7627 229.413 42.74C229.175 42.7173 228.937 42.706 228.699 42.706C227.985 42.706 227.334 42.8703 226.744 43.199C226.155 43.5277 225.741 43.93 225.503 44.406V56H221.287ZM241.765 56.34C239.714 56.34 238.003 55.932 236.631 55.116C235.271 54.2887 234.251 53.2007 233.571 51.852C232.891 50.492 232.551 49.0073 232.551 47.398C232.551 45.8453 232.869 44.4117 233.503 43.097C234.149 41.7823 235.09 40.7283 236.325 39.935C237.561 39.1303 239.068 38.728 240.847 38.728C242.479 38.728 243.839 39.0623 244.927 39.731C246.015 40.3997 246.831 41.295 247.375 42.417C247.919 43.5277 248.191 44.7573 248.191 46.106C248.191 46.48 248.169 46.8597 248.123 47.245C248.078 47.619 248.01 48.01 247.919 48.418H236.937C237.096 49.472 237.425 50.3277 237.923 50.985C238.433 51.631 239.051 52.107 239.776 52.413C240.513 52.719 241.301 52.872 242.139 52.872C243.125 52.872 244.043 52.7473 244.893 52.498C245.743 52.2373 246.525 51.8973 247.239 51.478L247.443 55.048C246.797 55.388 245.993 55.6883 245.029 55.949C244.066 56.2097 242.978 56.34 241.765 56.34ZM237.039 45.562H243.907C243.907 45.052 243.811 44.542 243.618 44.032C243.426 43.5107 243.103 43.0743 242.649 42.723C242.207 42.3717 241.607 42.196 240.847 42.196C239.759 42.196 238.904 42.5133 238.28 43.148C237.657 43.7827 237.243 44.5873 237.039 45.562ZM256.101 56.34C255.195 56.34 254.367 56.1417 253.619 55.745C252.871 55.337 252.276 54.7533 251.834 53.994C251.392 53.2347 251.171 52.3167 251.171 51.24C251.171 50.2767 251.392 49.455 251.834 48.775C252.288 48.0837 252.877 47.5113 253.602 47.058C254.339 46.5933 255.132 46.2307 255.982 45.97C256.844 45.698 257.688 45.4997 258.515 45.375C259.354 45.2503 260.091 45.1767 260.725 45.154C260.68 44.1793 260.431 43.471 259.977 43.029C259.524 42.587 258.753 42.366 257.665 42.366C256.906 42.366 256.164 42.4737 255.438 42.689C254.724 42.893 253.914 43.216 253.007 43.658L252.633 40.224C253.653 39.7253 254.673 39.3513 255.693 39.102C256.725 38.8527 257.767 38.728 258.821 38.728C260.091 38.728 261.184 38.9547 262.102 39.408C263.02 39.8613 263.729 40.5923 264.227 41.601C264.726 42.5983 264.975 43.9187 264.975 45.562V50.152C264.975 51.002 265.015 51.6197 265.094 52.005C265.174 52.379 265.321 52.617 265.536 52.719C265.752 52.821 266.063 52.872 266.471 52.872H267.015L266.641 56.34H265.111C264.477 56.34 263.91 56.255 263.411 56.085C262.924 55.9263 262.505 55.6997 262.153 55.405C261.802 55.1103 261.519 54.7647 261.303 54.368C260.748 54.9913 259.994 55.4787 259.042 55.83C258.102 56.17 257.121 56.34 256.101 56.34ZM257.869 53.11C258.243 53.11 258.708 53.0137 259.263 52.821C259.819 52.617 260.317 52.3053 260.759 51.886V48.01C259.966 48.044 259.173 48.1743 258.379 48.401C257.586 48.6277 256.923 48.962 256.39 49.404C255.858 49.846 255.591 50.4013 255.591 51.07C255.591 51.7613 255.773 52.277 256.135 52.617C256.498 52.9457 257.076 53.11 257.869 53.11ZM270.723 56V39H274.327L274.599 41.482L273.987 40.734C274.633 40.224 275.404 39.765 276.299 39.357C277.206 38.9377 278.26 38.728 279.461 38.728C280.368 38.728 281.167 38.864 281.858 39.136C282.561 39.3967 283.161 39.7763 283.66 40.275C284.159 40.7623 284.561 41.346 284.867 42.026L283.847 41.788C284.391 40.8133 285.184 40.0597 286.227 39.527C287.281 38.9943 288.471 38.728 289.797 38.728C291.361 38.728 292.636 39.051 293.622 39.697C294.608 40.343 295.333 41.2553 295.798 42.434C296.263 43.6013 296.495 44.9727 296.495 46.548V56H292.279V46.854C292.279 45.2673 292.03 44.0943 291.531 43.335C291.044 42.5757 290.228 42.196 289.083 42.196C288.516 42.196 288.018 42.298 287.587 42.502C287.168 42.6947 286.816 42.9837 286.533 43.369C286.261 43.743 286.057 44.202 285.921 44.746C285.785 45.2787 285.717 45.8793 285.717 46.548V56H281.501V46.854C281.501 45.8 281.388 44.9273 281.161 44.236C280.946 43.5447 280.594 43.0347 280.107 42.706C279.631 42.366 279.008 42.196 278.237 42.196C277.251 42.196 276.441 42.4283 275.806 42.893C275.183 43.3463 274.633 43.964 274.157 44.746L274.939 42.468V56H270.723Z" fill="white"/>
</svg>
